<svg t="1651435331469" class="icon" viewBox="0 0 1024 1024" version="1.1" xmlns="http://www.w3.org/2000/svg" p-id="913" width="200" height="200"><path d="M153.6 85.333333h204.8C396.096 85.333333 426.666667 116.416 426.666667 154.752v208.277333c0 38.336-30.570667 69.418667-68.266667 69.418667H153.6c-37.696 0-68.266667-31.082667-68.266667-69.418667V154.752C85.333333 116.416 115.904 85.333333 153.6 85.333333M153.6 591.552h204.8c37.696 0 68.266667 31.082667 68.266667 69.418667v208.277333C426.666667 907.584 396.096 938.666667 358.4 938.666667H153.6C115.904 938.666667 85.333333 907.584 85.333333 869.248v-208.277333c0-38.336 30.570667-69.418667 68.266667-69.418667z" fill="#409EEF" opacity=".955" p-id="914"></path><path d="M938.666667 730.389333v69.44C938.666667 876.501333 877.546667 938.666667 802.133333 938.666667h-68.266666c-75.413333 0-136.533333-62.165333-136.533334-138.837334v-69.44c0-76.672 61.12-138.837333 136.533334-138.837333h68.266666c75.413333 0 136.533333 62.165333 136.533334 138.837333" fill="#9BCCF6" opacity=".955" p-id="915"></path><path d="M923.52 111.168c9.472 11.925333 15.146667 27.093333 15.146667 43.584v208.277333c0 38.336-30.570667 69.418667-68.266667 69.418667h-204.8c-37.696 0-68.266667-31.082667-68.266667-69.418667V154.752C597.333333 116.416 627.904 85.333333 665.6 85.333333h204.8c21.461333 0 40.618667 10.069333 53.12 25.834667" fill="#409EEF" opacity=".955" p-id="916"></path></svg>
